<svg xmlns="http://www.w3.org/2000/svg" width="420" height="420" viewBox="0 0 420 420">
  <defs>
    <linearGradient id="bg" x1="0" x2="1" y1="0" y2="1">
      <stop offset="0" stop-color="#d8b04b" stop-opacity=".18"/>
      <stop offset="1" stop-color="#d8b04b" stop-opacity=".16"/>
    </linearGradient>
    <linearGradient id="gold" x1="0" x2="1">
      <stop offset="0" stop-color="#d8b04b"/><stop offset="1" stop-color="#f2d17c"/>
    </linearGradient>
    <filter id="sh" x="-20%" y="-20%" width="140%" height="140%">
      <feDropShadow dx="0" dy="18" stdDeviation="10" flood-color="#000" flood-opacity=".35"/>
    </filter>
  </defs>
  <rect x="18" y="18" width="384" height="384" rx="64" fill="url(#bg)" />
  <!-- hair -->
  <path d="M140 160c0-56 32-94 70-94s70 38 70 94c0 8-2 18-6 30-10-24-26-38-64-38s-54 14-64 38c-4-12-6-22-6-30z"
        fill="#0b0b10" opacity=".98" filter="url(#sh)"/>
  <!-- face -->
  <path d="M160 160c0-38 22-64 50-64s50 26 50 64v26c0 34-22 62-50 62s-50-28-50-62v-26z" fill="#8f5d42" filter="url(#sh)"/>
  <!-- eyes -->
  <path d="M182 172c8-10 18-10 26 0" stroke="#111118" stroke-width="6" stroke-linecap="round" fill="none"/>
  <path d="M212 172c8-10 18-10 26 0" stroke="#111118" stroke-width="6" stroke-linecap="round" fill="none"/>
  <!-- lashes -->
  <path d="M178 166l-10-6M188 162l-10-6M242 162l10-6M252 166l10-6" stroke="#111118" stroke-width="5" stroke-linecap="round" opacity=".9"/>
  <!-- smile -->
  <path d="M192 206c10 12 26 12 36 0" stroke="#111118" stroke-width="6" stroke-linecap="round" fill="none"/>
  <!-- earrings -->
  <circle cx="152" cy="196" r="8" fill="url(#gold)"/><circle cx="268" cy="196" r="8" fill="url(#gold)"/>
  <!-- suit -->
  <path d="M120 330c18-52 42-84 90-84s72 32 90 84v34H120v-34z" fill="#14141a" filter="url(#sh)"/>
  <path d="M172 252l38 58 38-58" fill="none" stroke="url(#gold)" stroke-width="8" stroke-linecap="round" opacity=".9"/>
  <!-- bracelet -->
  <rect x="150" y="292" width="40" height="10" rx="5" fill="url(#gold)" opacity=".95"/>
  <!-- hands + item -->
  <path d="M122 308c18 0 44 14 56 26 10 10 12 20 4 28-8 8-20 6-34-2-18-10-44-26-44-38 0-10 8-14 18-14z" fill="#8f5d42" opacity=".98"/>
  
        <path d="M170 222h40c6 0 10 4 10 10v16c0 10-8 18-18 18h-14c-10 0-18-8-18-18v-26z" fill="#0b0b10" opacity=".92"/>
        <path d="M220 232h10c6 0 10 4 10 10s-4 10-10 10h-10" fill="none" stroke="#d8b04b" stroke-width="6" stroke-linecap="round"/>
        <path d="M180 214c0-10 12-10 12-20M196 214c0-10 12-10 12-20" fill="none" stroke="#d8b04b" stroke-width="5" stroke-linecap="round" opacity=".6"/>
        
  <!-- sparkle -->
  <path d="M318 110l6 16 16 6-16 6-6 16-6-16-16-6 16-6z" fill="url(#gold)" opacity=".85"/>
</svg>